Patient4_TMGait_0pt6_01_left_35_EMG.mot
version=1
nRows=16
nColumns=33
inDegrees=no
endheader
time	1LAddLong	2LGlutMax	3LGlutMed	4LIliopsoas	5LSemiMemb	6LBicFemLong	7LRecFem	8LVastMed	9LVastLat	10LGasMed	11LTibAnt	12lTibPost	13LPeroneusLong	14LSol	15LExtDigLong	16LFlexDigLong	17RAddLong	18RGlutMax	19RGlutMed	20RIliopsoas	21RSemiMemb	22RBicFemLong	23RRecFem	24RVastMed	25RVastLat	26RGasMed	27RTibAnt	28RTibPost	29RPeroneusLong	30RSol	31RExtDigLong	32RFlexDigLong
43.425	0.000305	0.089569	0.01709	0.001984	-0.008087	0.034485	0.04837	0.001831	0.018921	0.39002	-0.014038	-0.008698	0.37384	0.014343	0.037842	0.15564	-0.14725	0.022583	0.42389	-0.002289	0.9372	0.064545	-0.50583	0.26474	0.23819	-0.007019	-0.031738	-0.014038	0.4747	-0.016937	-0.000916	-0.002594
43.426	0.000305	0.06546	0.063324	-0.00473	-0.018921	0.049286	0.046234	0.002289	0.019379	0.032196	-0.000458	-0.015564	0.22812	0.072327	0.007782	-0.11139	-0.073547	-0.022278	0.49088	-0.003357	0.91141	-0.12909	-0.3865	0.14496	0.25055	-0.003052	-0.06958	-0.014648	0.43503	0.015106	-0.001678	-0.004272
43.427	-0.002747	0.022583	0.12161	-0.012054	-0.014648	0.076447	0.028687	0.001984	0.021515	-0.48645	0.00351	0.039215	0.037231	-0.019684	-0.036926	-0.12466	-0.043335	-0.02121	0.49622	0.071716	0.57449	-0.12329	-0.21973	0.13641	0.26093	0.011902	-0.3093	-0.014038	-0.40924	-0.094299	-0.006714	-0.013123
43.428	0.009308	0.020752	0.12161	0.007324	-0.013733	0.028839	0.027466	-0.001373	0.032501	-0.21988	-0.007782	-0.019379	0.18097	0.11337	-0.021057	-0.086975	-0.013733	-0.11841	0.59586	0.14786	0.4007	0.010681	-0.1355	0.26627	0.17059	0.002441	-0.2565	-0.016632	-0.47974	-0.081787	-0.00351	-0.015106
43.429	0.007629	0.024567	0.061951	0.016022	-0.006409	-0.026245	0.011292	-0.007019	0.05722	-0.014496	-0.021057	-0.0354	0.37796	0.2562	-0.035706	0.023651	0.003052	-0.081177	0.39475	0.12085	0.38925	0.24078	-0.11398	0.21805	0.093842	-0.005188	0.089722	-0.015869	0.1178	-0.079956	-0.000916	-0.014038
43.43	0.011749	0.030518	0.061035	-0.004272	-0.016632	-0.079041	0.012817	0.007782	0.030518	-0.11856	-0.004425	-0.012665	0.048981	0.34866	-0.019989	0.097504	-0.009155	-0.061798	0.28519	0.071259	0.72311	0.35202	-0.10101	0.10574	0.035553	0.00061	0.3006	-0.014648	0.18204	-0.12451	-0.005798	-0.011749
43.431	0.005341	0.070801	0.076294	-0.005188	-0.055847	-0.13107	0.001373	-0.002441	0.021362	-0.41382	0.014038	0.012207	-0.078125	0.40359	0.002289	-0.014343	-0.041809	-0.002136	0.46188	0.065765	0.60699	0.36148	-0.21622	0.11322	0.013275	0.014648	0.30487	-0.011292	0.074921	-0.18707	0.002747	-0.01358
43.432	0.000305	0.095215	0.057526	0.026093	-0.025787	-0.10956	0.006561	0.001831	-0.009003	-0.35156	0.003967	0.025635	0.11948	0.28717	-0.017548	-0.012817	-0.045013	0.12222	0.46555	0.044861	0.28595	0.24445	-0.25101	0.1329	0.00351	0.009003	0.29495	-0.015717	0.52368	-0.17517	-0.003357	-0.012512
43.433	0.009918	0.055389	-0.15869	0.011597	0.006104	-0.16403	0.004883	0.004578	-0.023193	-0.24506	0.019531	0.020142	-0.071564	0.11078	0.001221	-0.007782	-0.031586	0.074921	0.43289	0.003967	0.29297	0.21759	-0.20233	0.18387	-0.045776	0.006866	-0.49118	-0.016174	0.48401	-0.080261	-0.003052	-0.006714
43.434	0.003052	0.077362	-0.15762	-0.000458	0.019836	-0.11078	0.023804	0.005188	-0.034943	-0.16815	0.028381	0.006104	-0.27161	0.13489	0.025635	-0.005951	-0.010376	0.17273	0.38559	0.011139	0.28137	0.20065	-0.2475	0.18112	-0.081329	0.003662	-1.2346	-0.014954	0.50827	0.042419	-0.003967	-0.008545
43.435	0.00824	0.1236	-0.060883	0.010681	0.002441	-0.013428	0.030365	0.004425	-0.038147	-0.02594	0.000153	-0.002441	0.025787	0.0914	0.030518	-0.006256	-0.019531	0.18143	0.26627	0.020294	0.22476	0.21408	-0.25772	0.14069	-0.071411	-0.006561	-0.84274	-0.012665	0.23178	0.11276	-0.00061	-0.006104
43.436	-0.000763	0.12878	-0.098724	-0.006409	-0.051117	0.072327	0.011444	0.005951	-0.032654	0.11627	-0.005341	-0.006256	-0.094452	0.053406	0.001678	-0.008698	-0.008698	0.13123	0.22827	-0.062408	0.26764	0.27832	-0.24551	0.070496	0.11078	-0.004578	-0.43381	-0.011749	0.017548	0.12558	0.00061	-0.00351
43.437	-0.000153	0.11124	-0.059052	-0.011902	-0.083313	0.066833	0.017548	0.00946	-0.055542	-0.11124	-0.013123	-0.004425	0.042267	-0.065308	0.011444	-0.002289	0.006714	0.0383	0.25635	-0.086517	0.66009	0.26062	-0.38864	0.079346	0.32044	-0.000153	-0.36804	-0.012665	0.022278	0.040894	-0.003052	0.003052
43.438	-0.005341	0.15488	-0.019836	-0.006409	-0.066986	0.046844	0.026245	0.00885	-0.075378	-0.11246	-0.045471	-0.007019	0.13275	-0.080719	0.032806	0.004578	0.016327	-0.039215	0.095062	-0.050659	0.77957	0.15213	-0.43823	0.10452	0.38864	-0.005341	-0.38147	-0.011597	0.056152	-0.031586	-0.00412	0.005188
43.439	0.001526	0.19119	-0.017242	-0.001831	0.032349	0.032654	0.027924	0.006256	-0.068359	0.080872	-0.029449	-0.013428	0.054016	-0.063934	-0.037079	0.009613	0.082092	-0.041046	-0.1831	0.029602	0.43549	0.059509	-0.23148	-0.074921	0.18143	-0.009308	-0.2446	-0.008392	0.031891	0.006714	-0.006561	0.008545
43.44	0.008545	0.22369	-0.022278	0.005341	0.090942	-0.007324	0.000458	0.003662	-0.063477	0.31372	0.003662	-0.003204	-0.084686	0.051422	0.018005	0.010071	0.1152	-0.053558	-0.31174	0.043335	0.34714	-0.073395	-0.17334	-0.29953	-0.058289	-0.00946	-0.1973	-0.010223	0.031128	0.15823	-0.002747	0.00885
